<svg xmlns="http://www.w3.org/2000/svg" width="43.155" height="34.941" viewBox="0 0 43.155 34.941">
  <g id="Group_28091" data-name="Group 28091" transform="translate(0 0)">
    <path id="Path_1407" data-name="Path 1407" d="M139.938,93.929H139.9a13.357,13.357,0,0,0-26.637,0h-.039a8.22,8.22,0,1,0,0,16.44h3.082a1.027,1.027,0,1,0,0-2.055h-3.082a6.165,6.165,0,0,1,0-12.33h1.028a1.028,1.028,0,0,0,1.028-1.028,11.3,11.3,0,1,1,22.605,0,1.028,1.028,0,0,0,1.028,1.028h1.028a6.165,6.165,0,0,1,0,12.33h-3.083a1.027,1.027,0,1,0,0,2.055h3.083a8.22,8.22,0,1,0,0-16.44Z" transform="translate(-105.004 -81.592)" fill="#706d6d"/>
    <path id="Path_1408" data-name="Path 1408" d="M276.665,271.829l4.411,4.411h0a1.028,1.028,0,0,0,1.453-1.453l-6.165-6.165a1.028,1.028,0,0,0-1.455,0l-6.165,6.165a1.028,1.028,0,0,0,1.453,1.453l4.413-4.411v7.795a1.028,1.028,0,0,0,2.055,0Z" transform="translate(-254.06 -251.876)" fill="#706d6d"/>
    <path id="Path_1409" data-name="Path 1409" d="M339.36,431.67a1.028,1.028,0,0,0-1.028,1.027v2.055a1.028,1.028,0,0,0,2.055,0V432.7a1.027,1.027,0,0,0-1.028-1.027Z" transform="translate(-317.782 -400.839)" fill="#706d6d"/>
  </g>
</svg>
